<svg xmlns="http://www.w3.org/2000/svg" viewBox="0 0 796.80 236.00" width="796.80" height="236.00"><rect width="796.80" height="236.00" fill="#1C1B16"/><path d="M73.20 200L46.40 200L46.40 81.80L5.40 81.80L5.40 60L114 60L114 81.80L73.20 81.80L73.20 200Z" fill="#EFE9DB" transform="translate(40.00,-4.00)"/><path d="M154.40 202.40L154.40 202.40Q142 202.40 133.80 198.20Q125.60 194 121.60 187Q117.60 180 117.60 171.80L117.60 171.80Q117.60 162.20 122.50 155.20Q127.40 148.20 137 144.30Q146.60 140.40 160.60 140.40L160.60 140.40L186 140.40Q186 132.40 183.80 127.10Q181.60 121.80 177 119.20Q172.40 116.60 165.20 116.60L165.20 116.60Q157 116.60 151.20 120.30Q145.40 124 144 131.60L144 131.60L120.40 131.60Q121.60 120.80 127.60 113.10Q133.60 105.40 143.50 101.10Q153.40 96.80 165.20 96.80L165.20 96.80Q179.40 96.80 189.40 101.70Q199.40 106.60 204.70 115.70Q210 124.80 210 137.60L210 137.60L210 200L189.60 200L187.20 183.80Q185.20 187.80 182.10 191.20Q179 194.60 175 197.10Q171 199.60 165.90 201Q160.80 202.40 154.40 202.40ZM159.80 183.40L159.80 183.40Q165.60 183.40 170.10 181.30Q174.60 179.20 177.90 175.30Q181.20 171.40 183 166.60Q184.80 161.80 185.40 156.40L185.40 156.40L185.40 156L163.20 156Q156.20 156 151.60 157.70Q147 159.40 145 162.60Q143 165.80 143 170Q143 174.20 145 177.20Q147 180.20 150.80 181.80Q154.60 183.40 159.80 183.40Z" fill="#EFE9DB" transform="translate(40.00,-4.00)"/><path d="M252.60 200L228.60 200L228.60 56L252.60 56L252.60 200Z" fill="#EFE9DB" transform="translate(40.00,-4.00)"/><path d="M318.20 202.40L318.20 202.40Q303.80 202.40 292.60 195.80Q281.40 189.20 275.10 177.40Q268.80 165.60 268.80 150L268.80 150Q268.80 134 275.10 122.10Q281.40 110.20 292.60 103.50Q303.80 96.80 318.60 96.80Q333.40 96.80 344 103.40Q354.60 110 360.40 120.90Q366.20 131.80 366.20 145L366.20 145Q366.20 147 366.10 149.30Q366 151.60 365.80 154.40L365.80 154.40L288.40 154.40Q289 163.60 292.60 170.20L292.60 170.20Q296.60 178 303.40 181.90Q310.20 185.80 318.20 185.80L318.20 185.80Q327.80 185.80 334 181.60Q340.20 177.40 343.20 170.20L343.20 170.20L363.20 170.20Q360.60 179.40 354.40 186.70Q348.20 194 339.10 198.20Q330 202.40 318.20 202.40ZM288.80 140.20L288.80 140.20L346.20 140.20Q345.60 127.60 337.80 120.50Q330 113.40 318.40 113.40L318.40 113.40Q310.20 113.40 303.40 117.10Q296.60 120.80 292.60 127.80L292.60 127.80Q289.60 133 288.80 140.20Z" fill="#EFE9DB" transform="translate(40.00,-4.00)"/><path d="M401.40 200L381.40 200L381.40 99.20L399.40 99.20L400.60 116.40Q405.40 107.40 414.20 102.10Q423 96.80 434.40 96.80L434.40 96.80Q446.40 96.80 455 101.60Q463.60 106.40 468.40 116.10Q473.20 125.80 473.20 140.40L473.20 140.40L473.20 200L453.20 200L453.20 142.40Q453.20 128.40 447 121.20Q440.80 114 429 114L429 114Q421.20 114 415 117.70Q408.80 121.40 405.10 128.60Q401.40 135.80 401.40 146.20L401.40 146.20L401.40 200Z" fill="#EFE9DB" transform="translate(40.00,-4.00)"/><path d="M547.40 200L531.80 200Q522.80 200 516.20 197.20Q509.60 194.40 506.10 187.70Q502.60 181 502.60 169.60L502.60 169.60L502.60 113.40L485.00 113.40L485.00 99.20L502.60 99.20L504.80 74.80L519.40 74.80L519.40 99.20L548.60 99.20L548.60 113.40L519.40 113.40L519.40 169.60Q519.40 179 523.20 182.30Q527 185.60 536.60 185.60L536.60 185.60L547.40 185.60L547.40 200Z" fill="#EFE9DB" transform="translate(40.00,-4.00)"/><path d="M596.40 202.40L596.40 202.40Q584.20 202.40 576 198.10Q567.80 193.80 563.80 186.70Q559.80 179.60 559.80 171.20L559.80 171.20Q559.80 161 565.10 153.90Q570.40 146.80 580.10 143.10Q589.80 139.40 603 139.40L603 139.40L629.60 139.40Q629.60 130 626.70 123.70Q623.80 117.40 618.30 114.20Q612.80 111 604.60 111L604.60 111Q595 111 588 115.80Q581 120.60 579.40 130L579.40 130L562.20 130Q563.40 119.20 569.50 111.90Q575.60 104.60 585 100.70Q594.40 96.80 604.60 96.80L604.60 96.80Q618.60 96.80 627.90 101.90Q637.20 107 641.80 116.10Q646.40 125.20 646.40 137.60L646.40 137.60L646.40 200L631.40 200L630.40 182.20Q628.40 186.40 625.30 190.10Q622.20 193.80 618 196.50Q613.80 199.20 608.50 200.80Q603.20 202.40 596.40 202.40ZM599 188.20L599 188.20Q606 188.20 611.70 185.30Q617.40 182.40 621.40 177.30Q625.40 172.20 627.50 166Q629.60 159.80 629.60 153L629.60 153L629.60 152.40L604.40 152.40Q594.60 152.40 588.60 154.70Q582.60 157 580 161.10Q577.40 165.20 577.40 170.40L577.40 170.40Q577.40 175.80 579.90 179.80Q582.40 183.80 587.30 186Q592.20 188.20 599 188.20Z" fill="#EFE9DB" transform="translate(40.00,-4.00)"/><path d="M679.60 200L665.60 200L665.60 56L679.60 56L679.60 200Z" fill="#EFE9DB" transform="translate(40.00,-4.00)"/><circle cx="744.80" cy="184.00" r="12.00" fill="#9DAE7C"/></svg>