<svg xmlns="http://www.w3.org/2000/svg" viewBox="0 0 824.20 236.00" width="824.20" height="236.00"><rect width="824.20" height="236.00" fill="#1C1B16"/><path d="M67.20 200L47.20 200L47.20 76.40L5.80 76.40L5.80 60L108.80 60L108.80 76.40L67.20 76.40L67.20 200Z" fill="#EFE9DB" transform="translate(40.00,-4.00)"/><path d="M156.40 202.40L156.40 202.40Q144 202.40 135.80 198.20Q127.60 194 123.60 186.90Q119.60 179.80 119.60 171.60L119.60 171.60Q119.60 161.60 124.80 154.50Q130 147.40 139.60 143.60Q149.20 139.80 162.60 139.80L162.60 139.80L188.80 139.80Q188.80 131 186.20 125.20Q183.60 119.40 178.50 116.50Q173.40 113.60 165.60 113.60L165.60 113.60Q156.60 113.60 150.20 117.90Q143.80 122.20 142.20 130.60L142.20 130.60L122.20 130.60Q123.40 120 129.50 112.50Q135.60 105 145.20 100.90Q154.80 96.80 165.60 96.80L165.60 96.80Q179.80 96.80 189.40 101.80Q199 106.80 203.90 115.90Q208.80 125 208.80 137.60L208.80 137.60L208.80 200L191.40 200L189.80 183Q187.60 187 184.60 190.60Q181.60 194.20 177.50 196.80Q173.40 199.40 168.10 200.90Q162.80 202.40 156.40 202.40ZM160.20 186.20L160.20 186.20Q166.60 186.20 171.80 183.60Q177 181 180.70 176.50Q184.40 172 186.30 166.30Q188.20 160.60 188.40 154.60L188.40 154.60L188.40 154L164.60 154Q156 154 150.70 156.10Q145.40 158.20 143 161.80Q140.60 165.40 140.60 170.20L140.60 170.20Q140.60 175.20 142.90 178.70Q145.20 182.20 149.60 184.20Q154 186.20 160.20 186.20Z" fill="#EFE9DB" transform="translate(40.00,-4.00)"/><path d="M249.40 200L229.40 200L229.40 56L249.40 56L249.40 200Z" fill="#EFE9DB" transform="translate(40.00,-4.00)"/><path d="M317.40 202.40L317.40 202.40Q303.00 202.40 291.80 195.80Q280.60 189.20 274.30 177.40Q268.00 165.60 268.00 150L268.00 150Q268.00 134 274.30 122.10Q280.60 110.20 291.80 103.50Q303.00 96.80 317.80 96.80Q332.60 96.80 343.20 103.40Q353.80 110 359.60 120.90Q365.40 131.80 365.40 145L365.40 145Q365.40 147 365.30 149.30Q365.20 151.60 365.00 154.40L365.00 154.40L287.60 154.40Q288.20 163.60 291.80 170.20L291.80 170.20Q295.80 178 302.60 181.90Q309.40 185.80 317.40 185.80L317.40 185.80Q327.00 185.80 333.20 181.60Q339.40 177.40 342.40 170.20L342.40 170.20L362.40 170.20Q359.80 179.40 353.60 186.70Q347.40 194 338.30 198.20Q329.20 202.40 317.40 202.40ZM288.00 140.20L288.00 140.20L345.40 140.20Q344.80 127.60 337.00 120.50Q329.20 113.40 317.60 113.40L317.60 113.40Q309.40 113.40 302.60 117.10Q295.80 120.80 291.80 127.80L291.80 127.80Q288.80 133 288.00 140.20Z" fill="#EFE9DB" transform="translate(40.00,-4.00)"/><path d="M402.60 200L382.60 200L382.60 99.20L400.60 99.20L401.80 116.40Q406.60 107.40 415.40 102.10Q424.20 96.80 435.60 96.80L435.60 96.80Q447.60 96.80 456.20 101.60Q464.80 106.40 469.60 116.10Q474.40 125.80 474.40 140.40L474.40 140.40L474.40 200L454.40 200L454.40 142.40Q454.40 128.40 448.20 121.20Q442.00 114 430.20 114L430.20 114Q422.40 114 416.20 117.70Q410.00 121.40 406.30 128.60Q402.60 135.80 402.60 146.20L402.60 146.20L402.60 200Z" fill="#EFE9DB" transform="translate(40.00,-4.00)"/><path d="M553.00 200L536.60 200Q527.00 200 520.00 197Q513.00 194 509.20 187Q505.40 180 505.40 168L505.40 168L505.40 116.20L488.00 116.20L488.00 99.20L505.40 99.20L507.80 74L525.40 74L525.40 99.20L554.00 99.20L554.00 116.20L525.40 116.20L525.40 168.20Q525.40 176.80 529.00 179.90Q532.60 183 541.40 183L541.40 183L553.00 183L553.00 200Z" fill="#EFE9DB" transform="translate(40.00,-4.00)"/><path d="M604.40 202.40L604.40 202.40Q592.00 202.40 583.80 198.20Q575.60 194 571.60 186.90Q567.60 179.80 567.60 171.60L567.60 171.60Q567.60 161.60 572.80 154.50Q578.00 147.40 587.60 143.60Q597.20 139.80 610.60 139.80L610.60 139.80L636.80 139.80Q636.80 131 634.20 125.20Q631.60 119.40 626.50 116.50Q621.40 113.60 613.60 113.60L613.60 113.60Q604.60 113.60 598.20 117.90Q591.80 122.20 590.20 130.60L590.20 130.60L570.20 130.60Q571.40 120 577.50 112.50Q583.60 105 593.20 100.90Q602.80 96.80 613.60 96.80L613.60 96.80Q627.80 96.80 637.40 101.80Q647.00 106.80 651.90 115.90Q656.80 125 656.80 137.60L656.80 137.60L656.80 200L639.40 200L637.80 183Q635.60 187 632.60 190.60Q629.60 194.20 625.50 196.80Q621.40 199.40 616.10 200.90Q610.80 202.40 604.40 202.40ZM608.20 186.20L608.20 186.20Q614.60 186.20 619.80 183.60Q625.00 181 628.70 176.50Q632.40 172 634.30 166.30Q636.20 160.60 636.40 154.60L636.40 154.60L636.40 154L612.60 154Q604.00 154 598.70 156.10Q593.40 158.20 591.00 161.80Q588.60 165.40 588.60 170.20L588.60 170.20Q588.60 175.20 590.90 178.70Q593.20 182.20 597.60 184.20Q602.00 186.20 608.20 186.20Z" fill="#EFE9DB" transform="translate(40.00,-4.00)"/><path d="M697.40 200L677.40 200L677.40 56L697.40 56L697.40 200Z" fill="#EFE9DB" transform="translate(40.00,-4.00)"/><circle cx="769.20" cy="181.00" r="15.00" fill="#9DAE7C"/></svg>