<svg xmlns="http://www.w3.org/2000/svg" xmlns:xlink="http://www.w3.org/1999/xlink" width="40" zoomAndPan="magnify" viewBox="0 0 30 30.000001" height="40" preserveAspectRatio="xMidYMid meet" version="1.0"><defs><g/><clipPath id="a0267a52b4"><path d="M 0.484375 0 L 29 0 L 29 29.03125 L 0.484375 29.03125 Z M 0.484375 0 " clip-rule="nonzero"/></clipPath><clipPath id="5d65324986"><rect x="0" width="29" y="0" height="30"/></clipPath></defs><g clip-path="url(#a0267a52b4)"><g transform="matrix(1, 0, 0, 1, 0.000000000000000111, 0.000000000000005692)"><g clip-path="url(#5d65324986)"><g fill="#2869c7" fill-opacity="1"><g transform="translate(1.218609, 23.0129)"><g><path d="M 2.84375 0 L 2.84375 -15.84375 L 6.359375 -15.84375 L 6.359375 0 Z M 0.296875 -8.203125 L 0.296875 -11.203125 L 8.90625 -11.203125 L 8.90625 -8.203125 Z M 0.296875 -8.203125 "/></g></g></g><g fill="#2869c7" fill-opacity="1"><g transform="translate(9.728036, 23.0129)"><g><path d="M 5.921875 0.234375 C 4.890625 0.234375 3.96875 -0.0195312 3.15625 -0.53125 C 2.351562 -1.039062 1.71875 -1.734375 1.25 -2.609375 C 0.78125 -3.484375 0.546875 -4.484375 0.546875 -5.609375 C 0.546875 -6.722656 0.78125 -7.71875 1.25 -8.59375 C 1.71875 -9.476562 2.351562 -10.171875 3.15625 -10.671875 C 3.96875 -11.179688 4.890625 -11.4375 5.921875 -11.4375 C 6.679688 -11.4375 7.363281 -11.289062 7.96875 -11 C 8.570312 -10.707031 9.066406 -10.300781 9.453125 -9.78125 C 9.835938 -9.269531 10.050781 -8.6875 10.09375 -8.03125 L 10.09375 -3.1875 C 10.050781 -2.519531 9.84375 -1.925781 9.46875 -1.40625 C 9.09375 -0.894531 8.597656 -0.492188 7.984375 -0.203125 C 7.367188 0.0859375 6.679688 0.234375 5.921875 0.234375 Z M 6.640625 -2.953125 C 7.390625 -2.953125 7.992188 -3.203125 8.453125 -3.703125 C 8.921875 -4.203125 9.15625 -4.835938 9.15625 -5.609375 C 9.15625 -6.128906 9.050781 -6.585938 8.84375 -6.984375 C 8.632812 -7.390625 8.34375 -7.703125 7.96875 -7.921875 C 7.59375 -8.140625 7.160156 -8.25 6.671875 -8.25 C 6.171875 -8.25 5.734375 -8.140625 5.359375 -7.921875 C 4.984375 -7.703125 4.679688 -7.390625 4.453125 -6.984375 C 4.234375 -6.585938 4.125 -6.128906 4.125 -5.609375 C 4.125 -5.097656 4.234375 -4.640625 4.453125 -4.234375 C 4.671875 -3.835938 4.96875 -3.523438 5.34375 -3.296875 C 5.726562 -3.066406 6.160156 -2.953125 6.640625 -2.953125 Z M 9.015625 0 L 9.015625 -3.015625 L 9.546875 -5.75 L 9.015625 -8.46875 L 9.015625 -11.203125 L 12.484375 -11.203125 L 12.484375 0 Z M 9.015625 0 "/></g></g></g><g fill="#2869c7" fill-opacity="1"><g transform="translate(22.757405, 23.0129)"><g><path d="M 1.25 0 L 1.25 -16.75 L 4.78125 -16.75 L 4.78125 0 Z M 1.25 0 "/></g></g></g></g></g></g></svg>