<svg xmlns="http://www.w3.org/2000/svg" xmlns:xlink="http://www.w3.org/1999/xlink" width="500" zoomAndPan="magnify" viewBox="0 0 375 187.499995" height="250" preserveAspectRatio="xMidYMid meet" version="1.0"><defs><g/><clipPath id="dcec4df8fa"><rect x="0" width="368" y="0" height="137"/></clipPath></defs><g transform="matrix(1, 0, 0, 1, 2, 25)"><g clip-path="url(#dcec4df8fa)"><g fill="#2869c7" fill-opacity="1"><g transform="translate(1.150581, 108.22093)"><g><path d="M 13.265625 0 L 13.265625 -74.0625 L 29.75 -74.0625 L 29.75 0 Z M 1.40625 -38.375 L 1.40625 -52.390625 L 41.609375 -52.390625 L 41.609375 -38.375 Z M 1.40625 -38.375 "/></g></g></g><g fill="#2869c7" fill-opacity="1"><g transform="translate(40.930022, 108.22093)"><g><path d="M 27.703125 1.078125 C 22.890625 1.078125 18.59375 -0.101562 14.8125 -2.46875 C 11.039062 -4.84375 8.0625 -8.078125 5.875 -12.171875 C 3.6875 -16.273438 2.59375 -20.953125 2.59375 -26.203125 C 2.59375 -31.441406 3.6875 -36.109375 5.875 -40.203125 C 8.0625 -44.304688 11.039062 -47.539062 14.8125 -49.90625 C 18.59375 -52.28125 22.890625 -53.46875 27.703125 -53.46875 C 31.222656 -53.46875 34.398438 -52.785156 37.234375 -51.421875 C 40.078125 -50.054688 42.394531 -48.171875 44.1875 -45.765625 C 45.988281 -43.359375 47 -40.609375 47.21875 -37.515625 L 47.21875 -14.875 C 47 -11.78125 46.007812 -9.03125 44.25 -6.625 C 42.488281 -4.21875 40.171875 -2.332031 37.296875 -0.96875 C 34.421875 0.394531 31.222656 1.078125 27.703125 1.078125 Z M 31.046875 -13.796875 C 34.566406 -13.796875 37.40625 -14.960938 39.5625 -17.296875 C 41.71875 -19.640625 42.796875 -22.609375 42.796875 -26.203125 C 42.796875 -28.640625 42.3125 -30.789062 41.34375 -32.65625 C 40.375 -34.53125 39.007812 -35.988281 37.25 -37.03125 C 35.488281 -38.070312 33.457031 -38.59375 31.15625 -38.59375 C 28.851562 -38.59375 26.820312 -38.070312 25.0625 -37.03125 C 23.300781 -35.988281 21.898438 -34.53125 20.859375 -32.65625 C 19.816406 -30.789062 19.296875 -28.640625 19.296875 -26.203125 C 19.296875 -23.828125 19.796875 -21.703125 20.796875 -19.828125 C 21.804688 -17.960938 23.207031 -16.488281 25 -15.40625 C 26.800781 -14.332031 28.816406 -13.796875 31.046875 -13.796875 Z M 42.15625 0 L 42.15625 -14.125 L 44.640625 -26.84375 L 42.15625 -39.5625 L 42.15625 -52.390625 L 58.328125 -52.390625 L 58.328125 0 Z M 42.15625 0 "/></g></g></g><g fill="#2869c7" fill-opacity="1"><g transform="translate(101.839056, 108.22093)"><g><path d="M 5.828125 0 L 5.828125 -78.265625 L 22.3125 -78.265625 L 22.3125 0 Z M 5.828125 0 "/></g></g></g><g fill="#2869c7" fill-opacity="1"><g transform="translate(126.741551, 108.22093)"><g><path d="M 31.703125 1.1875 C 26.015625 1.1875 20.960938 0.0195312 16.546875 -2.3125 C 12.128906 -4.65625 8.660156 -7.910156 6.140625 -12.078125 C 3.628906 -16.242188 2.375 -20.953125 2.375 -26.203125 C 2.375 -31.441406 3.613281 -36.128906 6.09375 -40.265625 C 8.570312 -44.398438 11.929688 -47.648438 16.171875 -50.015625 C 20.410156 -52.390625 25.191406 -53.578125 30.515625 -53.578125 C 35.679688 -53.578125 40.238281 -52.460938 44.1875 -50.234375 C 48.144531 -48.003906 51.253906 -44.910156 53.515625 -40.953125 C 55.785156 -37.003906 56.921875 -32.484375 56.921875 -27.390625 C 56.921875 -26.453125 56.863281 -25.460938 56.75 -24.421875 C 56.644531 -23.378906 56.453125 -22.175781 56.171875 -20.8125 L 11 -20.703125 L 11 -32.015625 L 49.15625 -32.125 L 42.046875 -27.390625 C 41.972656 -30.398438 41.503906 -32.894531 40.640625 -34.875 C 39.773438 -36.851562 38.5 -38.363281 36.8125 -39.40625 C 35.125 -40.445312 33.0625 -40.96875 30.625 -40.96875 C 28.03125 -40.96875 25.78125 -40.375 23.875 -39.1875 C 21.96875 -38 20.492188 -36.328125 19.453125 -34.171875 C 18.410156 -32.015625 17.890625 -29.394531 17.890625 -26.3125 C 17.890625 -23.21875 18.445312 -20.570312 19.5625 -18.375 C 20.675781 -16.1875 22.257812 -14.5 24.3125 -13.3125 C 26.363281 -12.125 28.789062 -11.53125 31.59375 -11.53125 C 34.175781 -11.53125 36.507812 -11.976562 38.59375 -12.875 C 40.675781 -13.78125 42.507812 -15.128906 44.09375 -16.921875 L 53.15625 -7.875 C 50.5625 -4.851562 47.429688 -2.585938 43.765625 -1.078125 C 40.097656 0.429688 36.078125 1.1875 31.703125 1.1875 Z M 31.703125 1.1875 "/></g></g></g><g fill="#2869c7" fill-opacity="1"><g transform="translate(182.583786, 108.22093)"><g><path d="M 40.421875 0 L 40.421875 -29.859375 C 40.421875 -32.585938 39.578125 -34.796875 37.890625 -36.484375 C 36.203125 -38.179688 34.066406 -39.03125 31.484375 -39.03125 C 29.679688 -39.03125 28.097656 -38.648438 26.734375 -37.890625 C 25.367188 -37.140625 24.289062 -36.0625 23.5 -34.65625 C 22.707031 -33.257812 22.3125 -31.660156 22.3125 -29.859375 L 15.953125 -32.984375 C 15.953125 -37.085938 16.847656 -40.679688 18.640625 -43.765625 C 20.441406 -46.859375 22.941406 -49.25 26.140625 -50.9375 C 29.335938 -52.625 32.953125 -53.46875 36.984375 -53.46875 C 40.859375 -53.46875 44.285156 -52.550781 47.265625 -50.71875 C 50.253906 -48.882812 52.609375 -46.457031 54.328125 -43.4375 C 56.054688 -40.425781 56.921875 -37.125 56.921875 -33.53125 L 56.921875 0 Z M 5.828125 0 L 5.828125 -52.390625 L 22.3125 -52.390625 L 22.3125 0 Z M 5.828125 0 "/></g></g></g><g fill="#2869c7" fill-opacity="1"><g transform="translate(241.01334, 108.22093)"><g><path d="M 13.265625 0 L 13.265625 -74.0625 L 29.75 -74.0625 L 29.75 0 Z M 1.40625 -38.375 L 1.40625 -52.390625 L 41.609375 -52.390625 L 41.609375 -38.375 Z M 1.40625 -38.375 "/></g></g></g><g fill="#2869c7" fill-opacity="1"><g transform="translate(280.792767, 108.22093)"><g><path d="M 27.703125 1.078125 C 22.890625 1.078125 18.59375 -0.101562 14.8125 -2.46875 C 11.039062 -4.84375 8.0625 -8.078125 5.875 -12.171875 C 3.6875 -16.273438 2.59375 -20.953125 2.59375 -26.203125 C 2.59375 -31.441406 3.6875 -36.109375 5.875 -40.203125 C 8.0625 -44.304688 11.039062 -47.539062 14.8125 -49.90625 C 18.59375 -52.28125 22.890625 -53.46875 27.703125 -53.46875 C 31.222656 -53.46875 34.398438 -52.785156 37.234375 -51.421875 C 40.078125 -50.054688 42.394531 -48.171875 44.1875 -45.765625 C 45.988281 -43.359375 47 -40.609375 47.21875 -37.515625 L 47.21875 -14.875 C 47 -11.78125 46.007812 -9.03125 44.25 -6.625 C 42.488281 -4.21875 40.171875 -2.332031 37.296875 -0.96875 C 34.421875 0.394531 31.222656 1.078125 27.703125 1.078125 Z M 31.046875 -13.796875 C 34.566406 -13.796875 37.40625 -14.960938 39.5625 -17.296875 C 41.71875 -19.640625 42.796875 -22.609375 42.796875 -26.203125 C 42.796875 -28.640625 42.3125 -30.789062 41.34375 -32.65625 C 40.375 -34.53125 39.007812 -35.988281 37.25 -37.03125 C 35.488281 -38.070312 33.457031 -38.59375 31.15625 -38.59375 C 28.851562 -38.59375 26.820312 -38.070312 25.0625 -37.03125 C 23.300781 -35.988281 21.898438 -34.53125 20.859375 -32.65625 C 19.816406 -30.789062 19.296875 -28.640625 19.296875 -26.203125 C 19.296875 -23.828125 19.796875 -21.703125 20.796875 -19.828125 C 21.804688 -17.960938 23.207031 -16.488281 25 -15.40625 C 26.800781 -14.332031 28.816406 -13.796875 31.046875 -13.796875 Z M 42.15625 0 L 42.15625 -14.125 L 44.640625 -26.84375 L 42.15625 -39.5625 L 42.15625 -52.390625 L 58.328125 -52.390625 L 58.328125 0 Z M 42.15625 0 "/></g></g></g><g fill="#2869c7" fill-opacity="1"><g transform="translate(341.701788, 108.22093)"><g><path d="M 5.828125 0 L 5.828125 -78.265625 L 22.3125 -78.265625 L 22.3125 0 Z M 5.828125 0 "/></g></g></g></g></g></svg>