<svg xmlns="http://www.w3.org/2000/svg" viewBox="0 0 1200 630" width="1200" height="630"><rect width="1200" height="630" fill="#1C1B16"/><g transform="translate(277.44,220.80)"><path d="M65.88 180L41.76 180L41.76 73.62L4.86 73.62L4.86 54L102.60 54L102.60 73.62L65.88 73.62L65.88 180Z" fill="#EFE9DB" transform="translate(0.00,-39.60)"/><path d="M138.96 182.16L138.96 182.16Q127.80 182.16 120.42 178.38Q113.04 174.60 109.44 168.30Q105.84 162 105.84 154.62L105.84 154.62Q105.84 145.98 110.25 139.68Q114.66 133.38 123.30 129.87Q131.94 126.36 144.54 126.36L144.54 126.36L167.40 126.36Q167.40 119.16 165.42 114.39Q163.44 109.62 159.30 107.28Q155.16 104.94 148.68 104.94L148.68 104.94Q141.30 104.94 136.08 108.27Q130.86 111.60 129.60 118.44L129.60 118.44L108.36 118.44Q109.44 108.72 114.84 101.79Q120.24 94.86 129.15 90.99Q138.06 87.12 148.68 87.12L148.68 87.12Q161.46 87.12 170.46 91.53Q179.46 95.94 184.23 104.13Q189 112.32 189 123.84L189 123.84L189 180L170.64 180L168.48 165.42Q166.68 169.02 163.89 172.08Q161.10 175.14 157.50 177.39Q153.90 179.64 149.31 180.90Q144.72 182.16 138.96 182.16ZM143.82 165.06L143.82 165.06Q149.04 165.06 153.09 163.17Q157.14 161.28 160.11 157.77Q163.08 154.26 164.70 149.94Q166.32 145.62 166.86 140.76L166.86 140.76L166.86 140.40L146.88 140.40Q140.58 140.40 136.44 141.93Q132.30 143.46 130.50 146.34Q128.70 149.22 128.70 153Q128.70 156.78 130.50 159.48Q132.30 162.18 135.72 163.62Q139.14 165.06 143.82 165.06Z" fill="#EFE9DB" transform="translate(0.00,-39.60)"/><path d="M227.34 180L205.74 180L205.74 50.40L227.34 50.40L227.34 180Z" fill="#EFE9DB" transform="translate(0.00,-39.60)"/><path d="M286.38 182.16L286.38 182.16Q273.42 182.16 263.34 176.22Q253.26 170.28 247.59 159.66Q241.92 149.04 241.92 135L241.92 135Q241.92 120.60 247.59 109.89Q253.26 99.18 263.34 93.15Q273.42 87.12 286.74 87.12Q300.06 87.12 309.60 93.06Q319.14 99 324.36 108.81Q329.58 118.62 329.58 130.50L329.58 130.50Q329.58 132.30 329.49 134.37Q329.40 136.44 329.22 138.96L329.22 138.96L259.56 138.96Q260.10 147.24 263.34 153.18L263.34 153.18Q266.94 160.20 273.06 163.71Q279.18 167.22 286.38 167.22L286.38 167.22Q295.02 167.22 300.60 163.44Q306.18 159.66 308.88 153.18L308.88 153.18L326.88 153.18Q324.54 161.46 318.96 168.03Q313.38 174.60 305.19 178.38Q297.00 182.16 286.38 182.16ZM259.92 126.18L259.92 126.18L311.58 126.18Q311.04 114.84 304.02 108.45Q297.00 102.06 286.56 102.06L286.56 102.06Q279.18 102.06 273.06 105.39Q266.94 108.72 263.34 115.02L263.34 115.02Q260.64 119.70 259.92 126.18Z" fill="#EFE9DB" transform="translate(0.00,-39.60)"/><path d="M361.26 180L343.26 180L343.26 89.28L359.46 89.28L360.54 104.76Q364.86 96.66 372.78 91.89Q380.70 87.12 390.96 87.12L390.96 87.12Q401.76 87.12 409.50 91.44Q417.24 95.76 421.56 104.49Q425.88 113.22 425.88 126.36L425.88 126.36L425.88 180L407.88 180L407.88 128.16Q407.88 115.56 402.30 109.08Q396.72 102.60 386.10 102.60L386.10 102.60Q379.08 102.60 373.50 105.93Q367.92 109.26 364.59 115.74Q361.26 122.22 361.26 131.58L361.26 131.58L361.26 180Z" fill="#EFE9DB" transform="translate(0.00,-39.60)"/><path d="M492.66 180L478.62 180Q470.52 180 464.58 177.48Q458.64 174.96 455.49 168.93Q452.34 162.90 452.34 152.64L452.34 152.64L452.34 102.06L436.50 102.06L436.50 89.28L452.34 89.28L454.32 67.32L467.46 67.32L467.46 89.28L493.74 89.28L493.74 102.06L467.46 102.06L467.46 152.64Q467.46 161.10 470.88 164.07Q474.30 167.04 482.94 167.04L482.94 167.04L492.66 167.04L492.66 180Z" fill="#EFE9DB" transform="translate(0.00,-39.60)"/><path d="M536.76 182.16L536.76 182.16Q525.78 182.16 518.40 178.29Q511.02 174.42 507.42 168.03Q503.82 161.64 503.82 154.08L503.82 154.08Q503.82 144.90 508.59 138.51Q513.36 132.12 522.09 128.79Q530.82 125.46 542.70 125.46L542.70 125.46L566.64 125.46Q566.64 117 564.03 111.33Q561.42 105.66 556.47 102.78Q551.52 99.90 544.14 99.90L544.14 99.90Q535.50 99.90 529.20 104.22Q522.90 108.54 521.46 117L521.46 117L505.98 117Q507.06 107.28 512.55 100.71Q518.04 94.14 526.50 90.63Q534.96 87.12 544.14 87.12L544.14 87.12Q556.74 87.12 565.11 91.71Q573.48 96.30 577.62 104.49Q581.76 112.68 581.76 123.84L581.76 123.84L581.76 180L568.26 180L567.36 163.98Q565.56 167.76 562.77 171.09Q559.98 174.42 556.20 176.85Q552.42 179.28 547.65 180.72Q542.88 182.16 536.76 182.16ZM539.10 169.38L539.10 169.38Q545.40 169.38 550.53 166.77Q555.66 164.16 559.26 159.57Q562.86 154.98 564.75 149.40Q566.64 143.82 566.64 137.70L566.64 137.70L566.64 137.16L543.96 137.16Q535.14 137.16 529.74 139.23Q524.34 141.30 522.00 144.99Q519.66 148.68 519.66 153.36L519.66 153.36Q519.66 158.22 521.91 161.82Q524.16 165.42 528.57 167.40Q532.98 169.38 539.10 169.38Z" fill="#EFE9DB" transform="translate(0.00,-39.60)"/><path d="M611.64 180L599.04 180L599.04 50.40L611.64 50.40L611.64 180Z" fill="#EFE9DB" transform="translate(0.00,-39.60)"/><circle cx="634.32" cy="129.60" r="10.80" fill="#9DAE7C"/></g><g transform="translate(474.87,0)" fill="rgba(239,233,219,0.55)"><path d="M3.11 580L1.31 580L1.31 567.40L3.44 567.40L7.70 575.91L11.95 567.40L14.09 567.40L14.09 580L12.29 580L12.29 570.55L8.39 578.24L7.00 578.24L3.11 570.57L3.11 580Z"/><path d="M21.78 580L19.89 580L24.52 567.40L26.48 567.40L31.11 580L29.18 580L28.08 576.89L22.88 576.89L21.78 580ZM23.40 575.45L27.58 575.45L25.49 569.56L23.40 575.45Z"/><path d="M38.71 580L36.91 580L36.91 567.40L38.71 567.40L45.13 577.07L45.13 567.40L46.93 567.40L46.93 580L45.13 580L38.71 570.35L38.71 580Z"/><path d="M58.53 580L56.73 580L56.73 575.32L52.57 567.40L54.61 567.40L57.63 573.57L60.65 567.40L62.67 567.40L58.53 575.32L58.53 580Z"/><path d=""/><path d=""/><path d="M86.15 575.09L86.15 575.09Q85.63 575.09 85.30 574.75Q84.97 574.42 84.97 573.93L84.97 573.93Q84.97 573.43 85.30 573.11Q85.63 572.78 86.15 572.78L86.15 572.78Q86.68 572.78 87.00 573.11Q87.32 573.43 87.32 573.93L87.32 573.93Q87.32 574.42 87.00 574.75Q86.68 575.09 86.15 575.09Z"/><path d=""/><path d=""/><path d="M112.41 580L110.61 580L110.61 567.40L118.44 567.40L118.44 568.88L112.41 568.88L112.41 572.96L117.45 572.96L117.45 574.40L112.41 574.40L112.41 580Z"/><path d="M132.32 580L124.37 580L124.37 567.40L132.32 567.40L132.32 568.88L126.17 568.88L126.17 572.91L131.78 572.91L131.78 574.35L126.17 574.35L126.17 578.52L132.32 578.52L132.32 580Z"/><path d="M143.27 580L141.22 580L137.80 567.40L139.72 567.40L142.28 577.89L145.21 567.40L147.21 567.40L150.06 577.93L152.65 567.40L154.57 567.40L151.10 580L148.99 580L146.17 569.97L143.27 580Z"/><path d=""/><path d=""/><path d="M178.20 575.09L178.20 575.09Q177.68 575.09 177.35 574.75Q177.01 574.42 177.01 573.93L177.01 573.93Q177.01 573.43 177.35 573.11Q177.68 572.78 178.20 572.78L178.20 572.78Q178.72 572.78 179.05 573.11Q179.37 573.43 179.37 573.93L179.37 573.93Q179.37 574.42 179.05 574.75Q178.72 575.09 178.20 575.09Z"/><path d=""/><path d=""/><path d="M208.33 580.22L208.33 580.22Q206.51 580.22 205.13 579.40Q203.76 578.58 202.97 577.11Q202.19 575.64 202.19 573.70L202.19 573.70Q202.19 571.77 202.97 570.31Q203.76 568.84 205.13 568.01Q206.51 567.18 208.33 567.18L208.33 567.18Q210.18 567.18 211.57 568.01Q212.95 568.84 213.72 570.31Q214.48 571.77 214.48 573.70L214.48 573.70Q214.48 575.64 213.72 577.11Q212.95 578.58 211.57 579.40Q210.18 580.22 208.33 580.22ZM208.35 578.61L208.35 578.61Q209.64 578.61 210.61 578.02Q211.59 577.43 212.12 576.33Q212.65 575.23 212.65 573.70L212.65 573.70Q212.65 572.17 212.12 571.07Q211.59 569.97 210.61 569.39Q209.64 568.80 208.35 568.80L208.35 568.80Q207.05 568.80 206.08 569.39Q205.11 569.97 204.57 571.07Q204.03 572.17 204.03 573.70L204.03 573.70Q204.03 575.23 204.57 576.33Q205.11 577.43 206.08 578.02Q207.05 578.61 208.35 578.61Z"/><path d="M222.44 580L220.64 580L220.64 567.40L222.44 567.40L228.87 577.07L228.87 567.40L230.67 567.40L230.67 580L228.87 580L222.44 570.35L222.44 580Z"/><path d="M245.25 580L237.30 580L237.30 567.40L245.25 567.40L245.25 568.88L239.10 568.88L239.10 572.91L244.71 572.91L244.71 574.35L239.10 574.35L239.10 578.52L245.25 578.52L245.25 580Z"/></g></svg>